HIERARCHY
ROOT Hips
{
	OFFSET 0.000000 0.000000 0.000000
	CHANNELS 6 Xposition Yposition Zposition Xrotation Yrotation Zrotation
	JOINT LeftUpLeg_virtual
	{
		OFFSET 0.000000 0.000000 0.000000
		CHANNELS 3 Xrotation Yrotation Zrotation
		JOINT LeftUpLeg
		{
			OFFSET 10.205400 -3.823500 0.155100
			CHANNELS 3 Xrotation Yrotation Zrotation
			JOINT LeftLeg
			{
				OFFSET 0.708757 -12.982077 0.567790
				CHANNELS 3 Xrotation Yrotation Zrotation
				JOINT LeftFoot
				{
					OFFSET -0.708756 -10.717838 -2.184338
					CHANNELS 3 Xrotation Yrotation Zrotation
					JOINT LeftToeBase
					{
						OFFSET 0.108149 -7.191104 7.560241
						CHANNELS 3 Xrotation Yrotation Zrotation
						JOINT LeftToe_End
						{
							OFFSET 0.070230 0.081724 4.490308
							CHANNELS 3 Xrotation Yrotation Zrotation
							End Site
							{
								OFFSET 0 0 0
							}
						}
					}
				}
			}
		}
	}
	JOINT RightUpLeg_virtual
	{
		OFFSET 0.000000 0.000000 0.000000
		CHANNELS 3 Xrotation Yrotation Zrotation
		JOINT RightUpLeg
		{
			OFFSET -10.205400 -3.823500 0.005500
			CHANNELS 3 Xrotation Yrotation Zrotation
			JOINT RightLeg
			{
				OFFSET -0.708756 -12.982134 0.610632
				CHANNELS 3 Xrotation Yrotation Zrotation
				JOINT RightFoot
				{
					OFFSET 0.708754 -10.717769 -1.945823
					CHANNELS 3 Xrotation Yrotation Zrotation
					JOINT RightToeBase
					{
						OFFSET -0.108140 -7.191069 7.372968
						CHANNELS 3 Xrotation Yrotation Zrotation
						JOINT RightToe_End
						{
							OFFSET -0.070227 0.081735 4.479403
							CHANNELS 3 Xrotation Yrotation Zrotation
							End Site
							{
								OFFSET 0 0 0
							}
						}
					}
				}
			}
		}
	}
	JOINT Spine_virtual
	{
		OFFSET 0.000000 0.000000 0.000000
		CHANNELS 3 Xrotation Yrotation Zrotation
		JOINT Spine
		{
			OFFSET 0.000000 6.876099 0.125700
			CHANNELS 3 Xrotation Yrotation Zrotation
			JOINT Spine1
			{
				OFFSET 0.000000 5.730043 0.104720
				CHANNELS 3 Xrotation Yrotation Zrotation
				JOINT Spine1_split
				{
					OFFSET 0.000000 5.730043 0.104720
					CHANNELS 3 Xrotation Yrotation Zrotation
					JOINT Spine2
					{
						OFFSET 0.000000 5.730043 0.104720
						CHANNELS 3 Xrotation Yrotation Zrotation
						JOINT Neck_virtual
						{
							OFFSET 0.000000 0.000000 0.000000
							CHANNELS 3 Xrotation Yrotation Zrotation
							JOINT Neck
							{
								OFFSET 0.000000 10.314075 0.188496
								CHANNELS 3 Xrotation Yrotation Zrotation
								JOINT Head
								{
									OFFSET 0.000000 7.643700 -2.377400
									CHANNELS 3 Xrotation Yrotation Zrotation
									JOINT HeadTop_End
									{
										OFFSET 0.000000 43.788605 -13.619600
										CHANNELS 3 Xrotation Yrotation Zrotation
										End Site
										{
											OFFSET 0 0 0
										}
									}
								}
							}
						}
						JOINT LeftShoulder_virtual
						{
							OFFSET 0.000000 0.000000 0.000000
							CHANNELS 3 Xrotation Yrotation Zrotation
							JOINT LeftShoulder
							{
								OFFSET 2.196100 4.412489 0.087492
								CHANNELS 3 Xrotation Yrotation Zrotation
								JOINT LeftShoulder_split
								{
									OFFSET 2.196100 4.412489 0.087492
									CHANNELS 3 Xrotation Yrotation Zrotation
									JOINT LeftArm
									{
										OFFSET 8.771219 -2.981674 -0.026999
										CHANNELS 3 Xrotation Yrotation Zrotation
										JOINT LeftForeArm
										{
											OFFSET 8.512804 0.000000 -0.000000
											CHANNELS 3 Xrotation Yrotation Zrotation
											JOINT LeftHand
											{
												OFFSET 18.484802 0.000000 -0.000000
												CHANNELS 3 Xrotation Yrotation Zrotation
												End Site
												{
													OFFSET 0 0 0
												}
											}
										}
									}
								}
							}
						}
						JOINT RightShoulder_virtual
						{
							OFFSET 0.000000 0.000000 0.000000
							CHANNELS 3 Xrotation Yrotation Zrotation
							JOINT RightShoulder
							{
								OFFSET -2.196100 4.412496 0.070690
								CHANNELS 3 Xrotation Yrotation Zrotation
								JOINT RightShoulder_split
								{
									OFFSET -2.196100 4.412496 0.070690
									CHANNELS 3 Xrotation Yrotation Zrotation
									JOINT RightArm
									{
										OFFSET -8.771282 -2.981682 -0.094208
										CHANNELS 3 Xrotation Yrotation Zrotation
										JOINT RightForeArm
										{
											OFFSET -8.494598 0.000000 0.000000
											CHANNELS 3 Xrotation Yrotation Zrotation
											JOINT RightHand
											{
												OFFSET -18.483803 0.000000 0.000001
												CHANNELS 3 Xrotation Yrotation Zrotation
												End Site
												{
													OFFSET 0 0 0
												}
											}
										}
									}
								}
							}
						}
					}
				}
			}
		}
	}
}
MOTION
Frames: 11
Frame Time: 0.03333333
-1.005187 31.904352 -2.669987 0.000000 0.000000 0.000000 -4.404116 -8.038414 2.975336 -13.399032 6.989993 3.152926 32.881289 7.102198 -4.299279 -16.236324 1.025560 -3.301361 1.648512 0.297699 0.618407 0.000000 0.000000 0.000000 -3.671149 -5.942645 3.034222 4.698477 -15.353741 -18.619833 21.691598 1.162662 -4.102932 -20.729397 -3.772956 13.816265 -4.636385 -1.051878 0.357333 0.000000 0.000000 0.000000 -5.098816 -3.869722 1.254354 8.802810 3.436224 -4.595419 1.817541 0.497728 -1.090736 0.768792 0.925538 0.107718 0.000000 0.000000 0.000000 1.246931 0.051388 -0.172407 -4.819195 -1.041602 1.344228 7.898027 3.400879 -4.113648 0.000000 0.000000 0.000000 0.792569 0.400034 -0.851156 0.343229 2.960218 0.311546 -2.487627 -2.606105 0.155644 -12.667329 -5.430322 -65.325446 -1.558848 -34.529195 0.841417 0.000000 0.000000 0.000000 2.546143 0.186835 -0.652205 4.459376 12.162460 -5.628531 -1.231852 0.189154 -1.591776 -1.092211 2.727936 76.409661 -0.515433 36.734407 -0.160907 0.000000 0.000000 0.000000 
-1.092160 31.894989 -2.776754 0.000000 0.000000 0.000000 -4.213841 -7.789920 3.068253 -13.591138 6.970861 3.132369 32.973537 7.105914 -4.241189 -15.947686 1.195589 -3.506253 1.780503 0.277558 0.704112 0.000000 0.000000 0.000000 -3.564025 -5.989486 3.091712 4.438969 -15.313904 -18.545427 21.558855 0.932952 -4.209139 -21.086539 -3.765552 13.717205 -4.256689 -0.956628 0.195693 0.000000 0.000000 0.000000 -4.762707 -4.068523 1.447636 8.882541 3.327093 -4.761018 1.814015 0.435835 -1.115473 0.775505 1.123166 -0.066899 0.000000 0.000000 0.000000 1.311226 0.019647 -0.195005 -4.829056 -0.887190 1.475108 7.668769 3.602817 -4.450592 0.000000 0.000000 0.000000 0.892588 0.344831 -0.847626 0.379594 2.827532 0.317873 -2.391058 -2.908056 0.227386 -13.120787 -5.399018 -65.294518 -1.733470 -35.206968 0.625574 0.000000 0.000000 0.000000 2.589320 0.128761 -0.665533 4.453882 12.361003 -5.511689 -1.288365 -0.187109 -1.614154 -0.740799 2.599780 76.330943 -0.580835 36.812998 -0.030764 0.000000 0.000000 0.000000 
-1.198864 31.886532 -2.920055 0.000000 0.000000 0.000000 -3.918322 -7.562805 2.949468 -14.183019 7.049110 3.458483 32.845068 7.155149 -4.238392 -15.515651 1.676039 -3.776979 2.027711 0.267245 0.666194 0.000000 0.000000 0.000000 -3.380864 -6.243535 2.940169 3.908908 -15.136304 -18.312410 21.685832 0.976727 -4.139030 -21.345058 -3.825490 14.207879 -4.177582 -0.917156 0.066295 0.000000 0.000000 0.000000 -4.242104 -4.567201 1.542710 9.144244 3.217936 -4.882900 1.819583 0.408250 -1.168383 0.834195 1.381951 -0.132463 0.000000 0.000000 0.000000 1.401898 0.035880 -0.270397 -4.859799 -0.615818 1.618588 6.977300 3.996389 -4.777660 0.000000 0.000000 0.000000 1.017646 0.349114 -0.851890 0.401139 2.612775 0.428943 -2.151383 -2.999846 0.252822 -13.695619 -5.513060 -65.205173 -1.571222 -35.772781 0.624381 0.000000 0.000000 0.000000 2.640788 0.107281 -0.684838 4.409397 12.474307 -5.485173 -1.319320 -0.329668 -1.654015 -0.160140 2.172139 76.274765 -0.665160 37.121272 0.077868 0.000000 0.000000 0.000000 
-1.295187 31.875689 -3.080860 0.000000 0.000000 0.000000 -3.534333 -7.451700 2.633155 -15.074825 7.281200 4.104658 32.515047 7.387148 -4.349689 -15.028450 2.490626 -3.892084 2.320569 0.267788 0.479039 0.000000 0.000000 0.000000 -3.110438 -6.689977 2.586038 3.168548 -14.866632 -17.879446 22.110434 1.259799 -3.936147 -21.705989 -3.916023 14.968131 -4.088349 -0.929880 0.056865 0.000000 0.000000 0.000000 -3.641541 -5.298932 1.507720 9.553021 3.110161 -4.948834 1.851911 0.424271 -1.218536 0.914379 1.631124 -0.144591 0.000000 0.000000 0.000000 1.549009 0.109718 -0.368674 -4.919341 -0.282913 1.713348 5.831200 4.460702 -5.015988 0.000000 0.000000 0.000000 1.188994 0.416985 -0.839456 0.410394 2.342852 0.637215 -1.951408 -2.823786 0.189838 -14.447747 -5.762988 -65.216436 -1.103318 -35.835848 0.850744 0.000000 0.000000 0.000000 2.724896 0.132128 -0.690436 4.332319 12.511412 -5.630074 -1.400550 -0.254051 -1.696365 0.510192 1.595994 76.305125 -0.718619 37.531654 0.120807 0.000000 0.000000 0.000000 
-1.375030 31.860909 -3.246946 0.000000 0.000000 0.000000 -3.030593 -7.643054 2.184590 -16.138415 7.581628 5.012687 32.168425 7.844254 -4.636995 -14.585635 3.621630 -3.783595 2.595937 0.281212 0.206452 0.000000 0.000000 0.000000 -2.723447 -7.401978 2.099241 2.145111 -14.520016 -17.388760 22.884472 1.658358 -3.621623 -22.335828 -3.973134 15.527445 -3.371480 -0.956592 0.248356 0.000000 0.000000 0.000000 -3.023314 -6.222932 1.351147 10.091779 3.009449 -4.946366 1.919155 0.486873 -1.240502 0.927446 1.703276 -0.030413 0.000000 0.000000 0.000000 1.755338 0.247090 -0.455558 -5.041438 0.061837 1.708469 4.250352 4.864963 -5.118218 0.000000 0.000000 0.000000 1.403464 0.540707 -0.791556 0.409151 2.019582 0.846401 -1.899828 -2.628511 0.171834 -15.416902 -6.076034 -65.290051 -0.460769 -35.247953 1.233437 0.000000 0.000000 0.000000 2.844519 0.208030 -0.665853 4.236266 12.488764 -6.050696 -1.468952 -0.052467 -1.607462 1.163642 1.081124 76.348271 -0.687544 37.871838 0.052607 0.000000 0.000000 0.000000 
-1.440252 31.833941 -3.446426 0.000000 0.000000 0.000000 -2.416428 -8.226603 1.706711 -17.288720 7.809438 6.058897 32.022632 8.447945 -5.103661 -14.200972 4.953962 -3.487250 2.820204 0.301936 -0.060021 0.000000 0.000000 0.000000 -2.175328 -8.466674 1.605111 0.615779 -14.145644 -17.078075 24.074725 2.170640 -3.185486 -22.979135 -3.919166 15.858217 -2.174214 -0.954286 0.590539 0.000000 0.000000 0.000000 -2.457786 -7.344969 1.082458 10.718687 2.908284 -4.879430 2.020457 0.597151 -1.224945 0.779261 1.652441 0.167152 0.000000 0.000000 0.000000 2.008598 0.427774 -0.507130 -5.261426 0.364658 1.583120 2.303041 5.068787 -5.037828 0.000000 0.000000 0.000000 1.668681 0.705769 -0.709528 0.408142 1.676291 1.011429 -1.915745 -2.543473 0.225000 -16.469738 -6.345964 -65.272696 0.137470 -34.018495 1.599464 0.000000 0.000000 0.000000 3.004574 0.320559 -0.610831 4.139906 12.417321 -6.768146 -1.544374 0.236195 -1.374951 1.835485 0.831596 76.363987 -0.525038 38.032809 -0.146805 0.000000 0.000000 0.000000 
-1.497783 31.789747 -3.705112 0.000000 0.000000 0.000000 -1.753281 -9.281876 1.312683 -18.454003 7.755654 7.130498 32.127711 9.010335 -5.690518 -13.861017 6.380859 -3.085096 2.969860 0.332884 -0.245164 0.000000 0.000000 0.000000 -1.477404 -9.789523 1.224015 -1.638757 -13.652992 -17.123767 25.572824 3.051354 -2.665366 -23.207584 -3.683124 16.559790 -1.360439 -0.911349 0.861240 0.000000 0.000000 0.000000 -1.837646 -8.473041 0.761452 11.428160 2.785989 -4.766459 2.156880 0.743804 -1.188638 0.654337 1.376841 0.329574 0.000000 0.000000 0.000000 2.283200 0.635556 -0.517868 -5.602250 0.588169 1.382520 0.159772 5.077986 -4.823156 0.000000 0.000000 0.000000 1.980332 0.879807 -0.603891 0.416381 1.397315 1.091715 -1.896842 -2.729289 0.436358 -17.314956 -6.506632 -64.926515 0.456993 -32.254213 1.751918 0.000000 0.000000 0.000000 3.204941 0.464078 -0.545751 4.100827 12.355661 -7.706419 -1.567410 0.580401 -1.017814 2.608494 0.794036 76.185303 -0.254995 38.020248 -0.395875 0.000000 0.000000 0.000000 
-1.543460 31.724533 -4.046314 0.000000 0.000000 0.000000 -1.060357 -10.732756 1.087338 -19.628065 7.280605 8.084984 32.387630 9.374777 -6.323001 -13.450531 7.816085 -2.765337 3.105497 0.371534 -0.356504 0.000000 0.000000 0.000000 -0.659519 -11.258693 1.049154 -4.533407 -12.990909 -17.497580 27.287321 4.407558 -2.112873 -22.870830 -3.289578 17.872838 -1.284703 -0.815739 0.918546 0.000000 0.000000 0.000000 -1.138403 -9.518577 0.477813 12.242927 2.606415 -4.614389 2.307202 0.912177 -1.153475 0.634875 1.002231 0.313610 0.000000 0.000000 0.000000 2.552063 0.844763 -0.495959 -6.048685 0.685407 1.191246 -1.966474 4.871962 -4.542379 0.000000 0.000000 0.000000 2.284447 1.052804 -0.493310 0.427332 1.263952 1.089047 -1.781941 -3.166661 0.810432 -17.544569 -6.534072 -63.974250 0.362906 -30.322761 1.564916 0.000000 0.000000 0.000000 3.431956 0.614083 -0.490616 4.133119 12.347444 -8.751485 -1.384288 0.882665 -0.645545 3.502321 0.613284 75.725276 0.057504 37.930257 -0.623411 0.000000 0.000000 0.000000 
-1.570364 31.660330 -4.429548 0.000000 0.000000 0.000000 -0.308176 -12.287447 1.060986 -20.830911 6.564094 8.899058 32.693274 9.517838 -6.941448 -12.908679 9.117113 -2.559211 3.238675 0.414510 -0.473771 0.000000 0.000000 0.000000 0.276323 -12.751344 1.083653 -7.767213 -12.285393 -17.857673 28.942459 5.937729 -1.574762 -22.460894 -2.939693 19.246030 -1.303033 -0.671459 0.791509 0.000000 0.000000 0.000000 -0.356852 -10.466730 0.283864 13.182590 2.303317 -4.480073 2.451019 1.068919 -1.140800 0.881060 0.808153 0.081602 0.000000 0.000000 0.000000 2.801064 1.013063 -0.454575 -6.478166 0.626521 1.074947 -3.872115 4.498413 -4.259223 0.000000 0.000000 0.000000 2.545674 1.198057 -0.402957 0.436143 1.361797 1.139607 -1.665653 -3.652570 1.115022 -16.934803 -6.446479 -62.316016 -0.179022 -28.514383 1.038858 0.000000 0.000000 0.000000 3.658366 0.732216 -0.460134 4.209265 12.381197 -9.711960 -1.053566 1.007301 -0.465015 4.539816 -0.194890 75.034191 0.342144 37.820205 -0.764445 0.000000 0.000000 0.000000 
-1.582830 31.617149 -4.875586 0.000000 0.000000 0.000000 0.571660 -13.660344 1.206459 -22.157923 5.894867 9.625542 32.888628 9.551611 -7.494008 -12.358751 10.122759 -2.279288 3.380820 0.448215 -0.664768 0.000000 0.000000 0.000000 1.316492 -13.959985 1.278490 -11.044891 -11.606775 -17.899088 30.335821 7.292824 -1.083728 -22.690995 -2.788240 19.881169 -0.706915 -0.492739 0.620251 0.000000 0.000000 0.000000 0.602969 -11.258541 0.240341 14.273236 1.841132 -4.422780 2.558494 1.169791 -1.147622 1.210758 0.845636 -0.086560 0.000000 0.000000 0.000000 3.024899 1.103084 -0.411749 -6.774812 0.474139 1.063908 -5.458577 4.059732 -4.018008 0.000000 0.000000 0.000000 2.752223 1.287521 -0.342268 0.452127 1.711109 1.336978 -1.630929 -4.005612 1.371475 -15.639485 -6.075331 -60.068597 -1.055955 -26.897357 0.300178 0.000000 0.000000 0.000000 3.861327 0.802906 -0.466291 4.277414 12.458391 -10.466233 -0.608148 0.908672 -0.315428 5.651213 -2.030313 74.108078 0.558961 37.566922 -0.780416 0.000000 0.000000 0.000000 
-1.594111 31.614941 -5.368587 0.000000 0.000000 0.000000 1.791366 -14.628575 1.483664 -23.804913 5.630157 10.423685 32.871153 9.550290 -8.055980 -11.751422 10.646546 -1.954561 3.440557 0.465559 -0.966930 0.000000 0.000000 0.000000 2.585874 -14.877547 1.590324 -14.346819 -11.059112 -17.558437 31.516836 8.249105 -0.559356 -23.560405 -2.789069 19.326505 0.656899 -0.288841 0.515209 0.000000 0.000000 0.000000 1.833691 -11.967509 0.350312 15.518883 1.210851 -4.460598 2.594527 1.181059 -1.171516 1.442916 1.157065 -0.172858 0.000000 0.000000 0.000000 3.199769 1.082285 -0.374346 -6.938835 0.293182 1.147860 -6.718662 3.502826 -3.780116 0.000000 0.000000 0.000000 2.885718 1.306747 -0.336074 0.473130 2.234171 1.742624 -1.672188 -4.169906 1.486362 -13.955730 -5.234905 -57.525144 -2.030423 -25.500124 -0.487724 0.000000 0.000000 0.000000 4.001767 0.798826 -0.499474 4.221692 12.462204 -10.905258 0.096080 0.685208 -0.284281 6.640861 -4.897388 73.192225 0.686840 36.807486 -0.703220 0.000000 0.000000 0.000000 
